<svg width="21" height="21" viewBox="0 0 21 21" fill="none" xmlns="http://www.w3.org/2000/svg" >
<path d="M6.43152 20.5013H14.5699C15.9336 20.5013 16.8103 19.6777 16.8812 18.3139L17.4745 5.5618H18.4486C18.9003 5.5618 19.2456 5.20757 19.2456 4.76479C19.2456 4.32201 18.8914 3.98549 18.4486 3.98549H14.5167V2.65715C14.5167 1.29338 13.6489 0.496368 12.17 0.496368H8.80484C7.32594 0.496368 6.45809 1.29338 6.45809 2.65715V3.98549H2.5439C2.10111 3.98549 1.74689 4.33086 1.74689 4.76479C1.74689 5.21643 2.10111 5.5618 2.5439 5.5618H3.51802L4.11134 18.3139C4.18219 19.6866 5.05004 20.5013 6.43152 20.5013ZM8.1141 2.73685C8.1141 2.28521 8.4329 1.99297 8.91996 1.99297H12.0549C12.5419 1.99297 12.8607 2.28521 12.8607 2.73685V3.98549H8.1141V2.73685ZM6.60864 18.9161C6.12158 18.9161 5.76735 18.553 5.74078 18.0305L5.14746 5.5618H15.8185L15.2429 18.0305C15.2252 18.5619 14.8798 18.9161 14.375 18.9161H6.60864ZM7.88385 17.4904C8.26464 17.4904 8.50375 17.2513 8.49489 16.897L8.22922 7.63402C8.22036 7.27979 7.97241 7.04955 7.60932 7.04955C7.23739 7.04955 6.99829 7.28865 7.00714 7.64288L7.27281 16.9059C7.28167 17.2601 7.52962 17.4904 7.88385 17.4904ZM10.4963 17.4904C10.8682 17.4904 11.125 17.2601 11.125 16.9059V7.64288C11.125 7.28865 10.8682 7.04955 10.4963 7.04955C10.1243 7.04955 9.87637 7.28865 9.87637 7.64288V16.9059C9.87637 17.2601 10.1243 17.4904 10.4963 17.4904ZM13.1087 17.4992C13.4629 17.4992 13.7109 17.2601 13.7197 16.9059L13.9854 7.64288C13.9942 7.28865 13.7551 7.0584 13.3832 7.0584C13.0201 7.0584 12.7722 7.28865 12.7633 7.64288L12.4976 16.9059C12.4888 17.2513 12.7279 17.4992 13.1087 17.4992Z" fill="#2D2D2D"/>
</svg>
